<svg xmlns="http://www.w3.org/2000/svg" viewBox="0 0 512 512">
  <rect width="512" height="512" rx="112" fill="#17171c"/>
  <path transform="translate(145.15 328.45)" d="M18.90 64.20Q12.90 64.20 6 63Q-0.90 61.80-7.50 59.70L-7.50 27.30Q-3.60 28.50-0.30 28.95Q3 29.40 5.40 29.40Q11.40 29.40 14.70 26.55Q18 23.70 18 15.30L18-147.90L55.20-147.90L55.20 25.50Q55.20 45.30 45.30 54.75Q35.40 64.20 18.90 64.20M57-170.70L17.10-170.70L17.10-209.10L57-209.10 M169.20 0L138.60 0L78-147.90L118.80-147.90L153.60-48.60L189-147.90L229.20-147.90" fill="#ededf2"/>
</svg>
